<svg width="860" height="715" viewBox="0 0 860 715" fill="none" xmlns="http://www.w3.org/2000/svg">
<path d="M637.591 0L830.203 111.205V333.614L637.591 444.819L444.978 333.614V111.205L637.591 0Z" fill="black" fill-opacity="0.27"/>
<path d="M444.147 333.11L510.125 371.332V712.888H444.147V333.11Z" fill="black" fill-opacity="0.27"/>
<path d="M510.125 712.888V371.732L584.114 457.021L584.15 627.633L510.125 712.888Z" fill="black" fill-opacity="0.27"/>
<path d="M640.917 90.1168L527.834 155.405V285.981L640.917 351.269L753.999 285.981V155.405L640.917 90.1168Z" fill="white"/>
<path d="M222.409 4.82764L29.7971 116.032V338.442L222.409 449.647L415.022 338.442V116.032L222.409 4.82764Z" fill="black" fill-opacity="0.27"/>
<path d="M415.181 338.199L349.202 376.016V713.954H415.181V338.199Z" fill="black" fill-opacity="0.27"/>
<path d="M349.203 714.498V376.56L275.214 459.837L275.179 629.644L349.203 714.498Z" fill="black" fill-opacity="0.27"/>
<path d="M219.083 94.9445L332.166 160.232V290.808L219.083 356.096L106.001 290.808V160.232L219.083 94.9445Z" fill="white"/>
</svg>
