<svg width="228" height="228" viewBox="0 0 228 228" fill="none" xmlns="http://www.w3.org/2000/svg">
<path d="M223.25 228H4.75C3.49022 228 2.28204 227.5 1.39124 226.609C0.500445 225.718 0 224.51 0 223.25V4.75C0 3.49022 0.500445 2.28204 1.39124 1.39124C2.28204 0.500445 3.49022 0 4.75 0L223.25 0C224.51 0 225.718 0.500445 226.609 1.39124C227.5 2.28204 228 3.49022 228 4.75V223.25C228 224.51 227.5 225.718 226.609 226.609C225.718 227.5 224.51 228 223.25 228ZM9.5 218.5H218.5V9.5H9.5V218.5Z" fill="white"/>
<path d="M79.3182 156H70.4545L96.0909 86.1818H104.818L130.455 156H121.591L100.727 97.2273H100.182L79.3182 156ZM82.5909 128.727H118.318V136.227H82.5909V128.727ZM149.784 86.1818V156H141.33V86.1818H149.784Z" fill="white"/>
</svg>
