<svg width="180" height="180" viewBox="0 0 180 180" fill="none" xmlns="http://www.w3.org/2000/svg">
<path d="M77.9467 180C77.4553 179.998 76.9689 179.901 76.5142 179.715L2.31806 149.047C1.51284 148.715 0.848591 148.112 0.439382 147.343C0.0301743 146.574 -0.0984515 145.686 0.0755959 144.833L7.49296 108.375C7.66586 107.528 8.12609 106.767 8.79576 106.22C9.46544 105.673 10.3034 105.375 11.1679 105.375H48.2622C48.8361 105.375 49.4024 105.506 49.9176 105.759C50.4327 106.012 50.883 106.379 51.2336 106.834C51.5843 107.288 51.826 107.817 51.9402 108.379C52.0544 108.941 52.0379 109.522 51.8922 110.078L47.1673 128.093L78.0742 141.547L117.351 127.425L125.248 90.33H14.8728C14.3044 90.3313 13.7431 90.2033 13.2314 89.9557C12.7196 89.7082 12.2709 89.3475 11.9191 88.901C11.5672 88.4546 11.3215 87.9339 11.2005 87.3785C11.0794 86.8231 11.0862 86.2474 11.2204 85.695L18.6378 55.0275C18.8374 54.2111 19.3049 53.4852 19.9657 52.9658C20.6265 52.4465 21.4423 52.1636 22.2827 52.1625H132.523L136.206 37.275L26.0251 37.74H26.0101C25.4425 37.7375 24.8827 37.6067 24.3727 37.3574C23.8627 37.108 23.4157 36.7466 23.0652 36.3001C22.7146 35.8536 22.4696 35.3336 22.3483 34.779C22.2271 34.2244 22.2329 33.6496 22.3652 33.0975L29.7826 2.8575C29.9824 2.04185 30.4503 1.31689 31.1112 0.798779C31.7721 0.280665 32.5877 -0.000616041 33.4275 1.01307e-06H176.247C176.798 -0.000385168 177.342 0.120434 177.84 0.353879C178.339 0.587324 178.78 0.92767 179.132 1.35075C179.484 1.77383 179.739 2.26926 179.878 2.80187C180.017 3.33448 180.038 3.8912 179.937 4.4325L153.95 146.265C153.836 146.875 153.573 147.448 153.184 147.932C152.796 148.416 152.294 148.796 151.723 149.04L79.4017 179.708C78.9409 179.901 78.4463 180 77.9467 180ZM8.04045 143.295L77.9167 172.185L146.93 142.92L171.748 7.5H36.3749L30.7875 30.2175L140.983 29.7525H140.998C141.567 29.7518 142.13 29.8808 142.642 30.1297C143.154 30.3786 143.603 30.7409 143.954 31.189C144.305 31.6372 144.55 32.1595 144.669 32.7163C144.789 33.273 144.78 33.8497 144.643 34.4025L139.101 56.8125C138.898 57.6249 138.431 58.3465 137.772 58.8628C137.113 59.3791 136.3 59.6605 135.463 59.6625H25.2451L19.6427 82.83H129.876C130.435 82.829 130.987 82.953 131.493 83.1931C131.998 83.4331 132.443 83.7831 132.795 84.2175C133.147 84.6518 133.398 85.1594 133.529 85.7031C133.66 86.2469 133.667 86.813 133.551 87.36L124.258 131.025C124.125 131.65 123.834 132.23 123.414 132.712C122.995 133.193 122.459 133.56 121.858 133.777L79.2142 149.108C78.3159 149.427 77.3298 149.395 76.4542 149.017L41.2349 133.688C40.414 133.332 39.7478 132.693 39.357 131.888C38.9663 131.083 38.8768 130.165 39.1049 129.3L43.4098 112.875H14.2353L8.04045 143.295Z" fill="white"/>
</svg>
