<svg width="262" height="368" viewBox="0 0 262 368" fill="none" xmlns="http://www.w3.org/2000/svg">
<path d="M57.7611 14.7993L252.92 287.103C255.437 290.615 253.107 295.525 248.795 295.796L110.934 304.47C110.658 304.487 110.381 304.484 110.105 304.459L10.5793 295.664C7.41179 295.384 5.14095 292.484 5.62845 289.342L47.8557 17.16C48.6108 12.2927 54.8918 10.7957 57.7611 14.7993Z" fill="#272727" stroke="white" stroke-width="3"/>
<path d="M133.021 66.2314L254.863 287.554C256.808 291.087 254.415 295.443 250.39 295.696L110.934 304.47C110.658 304.487 110.381 304.484 110.105 304.459L13.5125 295.923C9.61943 295.579 7.31724 291.398 9.10789 287.925L123.314 66.3639C125.331 62.4513 130.898 62.3753 133.021 66.2314Z" fill="#272727" stroke="white" stroke-width="3"/>
<path d="M222.847 80.6377L258.683 286.926C259.079 289.205 258.007 291.488 256.001 292.638L131.291 364.17C129.573 365.155 127.458 365.141 125.754 364.133L8.48611 294.776C5.4049 292.954 4.85811 288.72 7.37518 286.175L213.517 77.7118C216.66 74.5331 222.082 76.2333 222.847 80.6377Z" fill="#272727" stroke="white" stroke-width="3"/>
</svg>
