<svg width="160" height="187" viewBox="0 0 160 187" fill="none" xmlns="http://www.w3.org/2000/svg">
<path d="M79.807 187C79.3826 186.999 78.9611 186.93 78.5582 186.797L16.493 165.916C15.7743 165.674 15.1418 165.229 14.6732 164.634C14.2045 164.038 13.9201 163.32 13.8549 162.565L0.0166583 4.23095C-0.0334939 3.69245 0.0298981 3.14944 0.202751 2.63688C0.375604 2.12433 0.654085 1.65361 1.02026 1.25503C1.38643 0.856452 1.83217 0.538862 2.32876 0.322718C2.82536 0.106573 3.36181 -0.00333361 3.90354 7.70137e-05H156.101C156.64 0.00372496 157.173 0.118393 157.667 0.33692C158.16 0.555447 158.603 0.873142 158.967 1.27017C159.332 1.66719 159.611 2.13502 159.787 2.64444C159.962 3.15387 160.03 3.69394 159.988 4.23095L146.157 162.558C146.092 163.314 145.807 164.034 145.336 164.631C144.866 165.228 144.232 165.674 143.511 165.916L81.048 186.797C80.6476 186.93 80.2287 186.998 79.807 187ZM21.4023 159.347L79.807 178.998L138.602 159.34L151.847 7.79174H8.16506L21.4023 159.347ZM80.2285 149C79.7278 149.001 79.2283 148.952 78.7377 148.852L39.6191 137.928C38.8499 137.713 38.1652 137.267 37.6572 136.651C37.1493 136.036 36.8425 135.279 36.7781 134.484L34.4054 104.159C34.3635 103.624 34.4328 103.086 34.609 102.578C34.7853 102.071 35.0647 101.606 35.4297 101.211C35.7946 100.817 36.2373 100.502 36.7299 100.287C37.2226 100.071 37.7545 99.9598 38.2923 99.9593H57.196C58.1702 99.9593 59.1092 100.323 59.8285 100.979C60.5477 101.635 60.9952 102.536 61.0828 103.505L62.2224 116.057L79.7836 120.864L97.4384 116.057L99.1555 98.1127H37.3011C36.3243 98.1124 35.3833 97.7465 34.6636 97.0873C33.944 96.428 33.4982 95.5233 33.4142 94.5519L28.3409 36.3092C28.2908 35.7707 28.3542 35.2277 28.527 34.7152C28.6999 34.2026 28.9784 33.7319 29.3445 33.3333C29.7107 32.9347 30.1564 32.6171 30.653 32.401C31.1496 32.1849 31.6861 32.0749 32.2278 32.0784H127.784C128.327 32.0759 128.864 32.1871 129.362 32.4045C129.859 32.622 130.305 32.9411 130.671 33.3411C131.037 33.7412 131.315 34.2133 131.488 34.7272C131.66 35.2411 131.722 35.7853 131.671 36.3248L129.931 55.4066C129.843 56.3752 129.395 57.2761 128.676 57.9321C127.957 58.5881 127.018 58.9519 126.044 58.9518H57.4379L58.4213 70.9276H124.42C124.963 70.9252 125.5 71.0363 125.998 71.2538C126.495 71.4713 126.941 71.7903 127.307 72.1903C127.673 72.5904 127.951 73.0626 128.124 73.5765C128.296 74.0903 128.358 74.6346 128.307 75.174L122.914 134.539C122.841 135.327 122.53 136.074 122.023 136.682C121.516 137.29 120.836 137.73 120.073 137.944L82.0548 148.525C81.4974 148.838 80.8682 149.002 80.2285 149ZM44.3412 131.165L79.7914 141.06L115.39 131.157L120.151 78.7192H54.8232C52.7939 78.7192 51.1003 77.1609 50.9286 75.1429L49.3129 55.3754C49.271 54.8388 49.3405 54.2993 49.5171 53.7906C49.6937 53.282 49.9735 52.8153 50.3391 52.4196C50.7047 52.0239 51.1482 51.7078 51.6418 51.4911C52.1353 51.2744 52.6684 51.1617 53.2076 51.1601H122.485L123.515 39.87H36.4815L40.8757 90.321H103.44C103.984 90.323 104.521 90.4379 105.017 90.6585C105.513 90.8791 105.958 91.2005 106.323 91.6022C106.688 92.0039 106.965 92.4772 107.137 92.9917C107.308 93.5063 107.371 94.0509 107.32 94.5909L104.939 119.477C104.863 120.265 104.549 121.011 104.039 121.616C103.529 122.221 102.846 122.657 102.082 122.867L80.7982 128.672C80.1231 128.851 79.4128 128.851 78.7377 128.672L57.5316 122.867C56.7647 122.657 56.0801 122.219 55.5696 121.611C55.0591 121.002 54.7469 120.252 54.6749 119.462L53.6291 107.759H42.507L44.3412 131.165Z" fill="white"/>
</svg>
