<svg width="199" height="262" viewBox="0 0 199 262" fill="none" xmlns="http://www.w3.org/2000/svg">
<path d="M93.0546 148.91C91.9924 148.912 90.9531 148.601 90.0669 148.015C88.8347 147.208 59.9717 127.952 59.9717 103.483C59.9717 77.5206 78.6067 63.9015 95.05 51.8743C108.408 42.1043 119.944 33.6645 119.944 20.6014C119.944 13.3502 115.375 9.76281 115.321 9.7192C114.214 8.83924 113.493 7.56388 113.309 6.16219C113.125 4.7605 113.492 3.34209 114.334 2.2062C115.175 1.07031 116.425 0.305767 117.82 0.0738684C119.215 -0.15803 120.645 0.160851 121.809 0.963235C122.179 1.23584 130.837 7.80008 130.837 20.5905C130.837 39.1929 115.91 50.1078 101.473 60.663C85.738 72.1886 70.8757 83.049 70.8757 103.483C70.8757 122.064 95.8133 138.736 96.0641 138.91C97.0415 139.557 97.7845 140.501 98.183 141.603C98.5815 142.706 98.6143 143.907 98.2766 145.029C97.9388 146.151 97.2485 147.134 96.3079 147.833C95.3673 148.532 94.2265 148.91 93.0546 148.91Z" fill="white"/>
<path d="M114.493 147.099C113.047 147.099 111.66 146.525 110.638 145.503C109.615 144.48 109.041 143.093 109.041 141.647C109.041 132.804 106.042 129.577 102.237 125.477C97.9839 120.897 92.6846 115.183 92.6846 102.491C92.6846 78.1203 139.332 52.4522 144.653 49.6062C145.285 49.2683 145.977 49.058 146.689 48.9875C147.402 48.9169 148.122 48.9874 148.807 49.195C149.493 49.4026 150.131 49.7431 150.685 50.1972C151.238 50.6513 151.697 51.2101 152.035 51.8415C152.373 52.473 152.584 53.1649 152.654 53.8776C152.725 54.5904 152.654 55.31 152.447 55.9955C152.239 56.681 151.898 57.3189 151.444 57.8728C150.99 58.4266 150.432 58.8856 149.8 59.2236C131.939 68.7974 103.589 89.0026 103.589 102.491C103.589 110.898 106.369 113.907 110.229 118.062C114.558 122.729 119.945 128.53 119.945 141.647C119.945 143.093 119.37 144.48 118.348 145.503C117.325 146.525 115.939 147.099 114.493 147.099Z" fill="white"/>
<path d="M60.4533 174.588C40.8369 174.588 24.2409 172.32 16.8589 167.741C11.9412 164.677 10.9053 160.936 10.9053 158.341C10.9053 145.355 36.8024 138.943 52.2317 136.271C53.6401 136.06 55.0752 136.409 56.2301 137.242C57.385 138.075 58.1679 139.328 58.4115 140.731C58.6551 142.134 58.34 143.577 57.5336 144.75C56.7271 145.924 55.4934 146.736 54.0963 147.012C38.6125 149.694 23.2051 155.234 21.7657 158.636C27.7739 166.563 108.737 166.836 145.647 148.56C146.944 147.92 148.442 147.821 149.812 148.285C151.182 148.749 152.312 149.738 152.952 151.036C153.593 152.333 153.692 153.831 153.228 155.201C152.764 156.571 151.774 157.701 150.477 158.341C128.735 169.104 90.952 174.588 60.4533 174.588ZM80.953 199.112C45.9291 199.112 41.4803 185.165 40.9351 182.145C40.6767 180.747 40.9746 179.303 41.7652 178.122C42.5558 176.94 43.7766 176.115 45.1674 175.82C46.5581 175.526 48.0089 175.786 49.2104 176.546C50.4118 177.306 51.269 178.505 51.5992 179.888C52.7005 182.832 61.7836 189.843 90.723 187.859C125.605 185.481 131.744 179.779 131.984 179.539C133.347 176.845 136.356 176.191 139.028 177.543C141.721 178.895 142.517 182.592 141.165 185.285C139.202 189.167 130.13 196.091 91.4645 198.73C87.6917 198.992 84.1915 199.112 80.953 199.112ZM86.3287 220.854C62.8304 220.854 47.3139 212.371 46.3435 211.826C45.0826 211.119 44.1542 209.94 43.7626 208.548C43.371 207.156 43.5483 205.666 44.2553 204.405C44.9624 203.145 46.1414 202.216 47.533 201.825C48.9245 201.433 50.4147 201.61 51.6756 202.317C52.9404 203.015 83.2428 219.317 123.239 202.077C123.899 201.776 124.613 201.609 125.338 201.587C126.064 201.564 126.786 201.687 127.464 201.948C128.141 202.209 128.76 202.602 129.283 203.105C129.806 203.608 130.224 204.21 130.511 204.877C130.799 205.543 130.95 206.26 130.957 206.986C130.964 207.712 130.825 208.432 130.55 209.103C130.275 209.775 129.869 210.385 129.355 210.897C128.841 211.41 128.229 211.814 127.557 212.087C112.324 218.652 98.2904 220.854 86.3287 220.854Z" fill="white"/>
<path d="M47.3891 243.1C28.3942 243.1 12.9867 241.813 6.34616 239.12C0.828706 236.884 0 233.286 0 231.345C0 220.506 17.9917 214.084 25.7227 211.805C26.41 211.604 27.1302 211.54 27.8422 211.617C28.5542 211.694 29.2441 211.911 29.8724 212.255C30.5006 212.599 31.0551 213.063 31.504 213.621C31.9529 214.179 32.2875 214.82 32.4886 215.507C32.6898 216.194 32.7537 216.915 32.6765 217.627C32.5994 218.339 32.3827 219.028 32.039 219.657C31.6952 220.285 31.2311 220.839 30.673 221.288C30.115 221.737 29.4741 222.072 28.7867 222.273C22.2007 224.203 15.3965 227.431 12.3979 229.84C34.6749 236.655 153.66 228.772 167.792 214.215C168.801 213.19 170.175 212.605 171.613 212.588C173.052 212.571 174.439 213.124 175.472 214.125C176.505 215.126 177.1 216.495 177.128 217.934C177.156 219.372 176.614 220.763 175.621 221.804C162.471 235.358 94.0802 243.1 47.3891 243.1Z" fill="white"/>
<path d="M62.5894 261.505C42.0352 261.505 25.6682 259.935 18.7223 257.492C18.0239 257.274 17.3765 256.917 16.8189 256.443C16.2613 255.969 15.8047 255.388 15.4765 254.734C15.1483 254.08 14.9552 253.366 14.9085 252.636C14.8619 251.906 14.9628 251.173 15.2052 250.483C15.4475 249.792 15.8264 249.158 16.3193 248.617C16.8121 248.076 17.4088 247.64 18.0739 247.334C18.7389 247.029 19.4586 246.86 20.19 246.839C20.9215 246.818 21.6498 246.944 22.3316 247.21C41.7735 254.036 146.376 252.945 190.745 226.361C191.985 225.618 193.471 225.398 194.873 225.75C196.276 226.101 197.482 226.996 198.225 228.237C198.968 229.477 199.188 230.962 198.836 232.365C198.485 233.768 197.59 234.974 196.349 235.717C164.302 254.919 104.679 261.505 62.5894 261.505ZM146.878 198.37C145.622 198.368 144.406 197.932 143.434 197.137C142.462 196.341 141.795 195.234 141.545 194.004C141.295 192.773 141.478 191.494 142.062 190.382C142.646 189.271 143.596 188.395 144.751 187.903C155.296 183.443 185.38 167.392 185.38 152.65C185.38 148.964 184.072 147.612 183.101 146.925C177.878 143.239 164.422 146.271 158.741 148.31C158.068 148.553 157.353 148.662 156.637 148.629C155.921 148.596 155.219 148.422 154.571 148.118C153.922 147.814 153.34 147.385 152.857 146.855C152.375 146.326 152.001 145.707 151.757 145.033C151.514 144.359 151.406 143.644 151.438 142.929C151.471 142.213 151.645 141.511 151.949 140.863C152.253 140.214 152.683 139.632 153.212 139.149C153.741 138.666 154.36 138.293 155.034 138.049C157.357 137.199 178.085 130.078 189.36 137.995C192.522 140.219 196.284 144.559 196.284 152.65C196.284 177.271 153.835 195.906 149.004 197.945C148.329 198.221 147.607 198.365 146.878 198.37Z" fill="white"/>
</svg>
