<svg width="185" height="185" viewBox="0 0 185 185" fill="none" xmlns="http://www.w3.org/2000/svg">
<path d="M181.146 185H3.85417C2.83198 185 1.85166 184.594 1.12886 183.871C0.406063 183.148 0 182.168 0 181.146V3.85417C0 2.83198 0.406063 1.85166 1.12886 1.12886C1.85166 0.406063 2.83198 0 3.85417 0L181.146 0C182.168 0 183.148 0.406063 183.871 1.12886C184.594 1.85166 185 2.83198 185 3.85417V181.146C185 182.168 184.594 183.148 183.871 183.871C183.148 184.594 182.168 185 181.146 185ZM7.70833 177.292H177.292V7.70833H7.70833V177.292ZM75.4415 171.341C69.0975 171.341 63.2238 169.822 58.2596 166.855C53.596 164.049 49.6956 159.616 46.99 154.02C46.5732 153.16 46.4907 152.176 46.7584 151.259C47.0262 150.342 47.6252 149.557 48.4392 149.056L61.921 140.746C62.5292 140.375 63.2279 140.177 63.9406 140.176C66.2531 140.176 67.2706 141.926 67.8796 142.974C69.7065 146.034 70.724 147.337 72.6896 148.324C72.7281 148.293 73.7688 148.586 75.0638 148.578C76.5515 148.578 78.3244 148.208 79.1029 146.582C79.8969 144.901 79.8275 138.372 79.7813 133.601L79.7427 128.22L79.8121 85.339C79.8121 84.3168 80.2181 83.3364 80.9409 82.6137C81.6637 81.8909 82.6441 81.4848 83.6663 81.4848H100.27C100.799 81.4855 101.322 81.5952 101.807 81.8069C102.292 82.0187 102.728 82.328 103.088 82.7156C103.448 83.1032 103.725 83.5607 103.9 84.0598C104.076 84.5589 104.147 85.0888 104.109 85.6165V101.033C104.132 111.185 104.147 121.306 104.093 131.419L104.14 135.397C104.271 143.529 104.394 151.207 100.686 157.967C97.865 163.725 92.2688 168.142 84.9921 170.239C81.8595 170.96 78.6561 171.33 75.4415 171.341ZM55.6233 153.689C57.4502 156.495 59.6933 158.73 62.214 160.249C67.7948 163.586 75.4029 164.519 83.0804 162.785C86.5029 161.79 91.3669 159.47 93.8413 154.429C96.6471 149.295 96.5469 142.92 96.4235 135.528L96.3773 131.419C96.439 121.291 96.4158 111.185 96.3927 101.056L96.3773 89.2008H87.4973L87.4356 128.228L87.4742 133.531C87.5667 142.527 87.5358 147.345 85.894 150.189C82.9725 156.31 75.6881 157.319 69.8375 155.485C66.9297 154.141 64.4607 152.004 62.715 149.318L55.6233 153.689ZM139.166 170.562C128.791 170.562 118.446 166.955 112.241 160.688L110.607 158.83C108.649 156.626 106.953 154.722 105.465 151.322C105.085 150.452 105.039 149.472 105.336 148.571C105.633 147.669 106.253 146.908 107.076 146.435L120.597 138.673C121.448 138.183 122.454 138.036 123.409 138.262C124.365 138.489 125.198 139.071 125.738 139.891C129.184 145.109 131.751 147.106 136.322 148.116C140.215 148.586 143.999 147.83 145.556 146.142C145.849 145.819 146.736 144.863 146.258 142.365C145.549 140.107 140.515 137.987 135.659 135.944C130.941 133.963 125.6 131.712 120.99 128.267C115.286 124.428 111.355 117.729 110.376 110.006C109.404 102.336 111.524 94.905 116.211 89.6017C119.418 85.6396 124.775 82.456 130.818 80.9837L136.453 80.2515C147.468 79.9971 155.092 82.8183 160.742 89.1469C162.284 90.6423 163.501 92.3767 165.444 95.3983C165.723 95.8268 165.913 96.307 166.004 96.8104C166.094 97.3137 166.082 97.8301 165.97 98.3289C165.857 98.8277 165.645 99.2988 165.347 99.7143C165.049 100.13 164.67 100.481 164.234 100.748C158.938 104.047 158.938 104.047 151.338 109.011C150.876 109.313 150.355 109.512 149.81 109.595C149.265 109.678 148.708 109.643 148.178 109.492C147.647 109.342 147.155 109.079 146.735 108.722C146.315 108.365 145.976 107.922 145.741 107.423C144.639 105.08 142.913 103.438 140.885 102.814C139.189 102.313 137.162 102.451 135.875 103.199C135.549 103.367 135.264 103.605 135.04 103.895C134.816 104.185 134.659 104.522 134.58 104.88C134.41 105.489 134.264 105.951 134.888 108.186C135.528 109.559 139.174 111.123 142.689 112.642C143.822 113.128 144.963 113.621 146.081 114.145C161.181 120.265 168.751 127.727 170.431 138.249C170.513 138.738 170.497 139.238 170.385 139.721C171.048 145.433 170.1 149.596 169.421 151.685C166.87 160.41 159.763 166.685 149.426 169.306C146.072 170.153 142.625 170.575 139.166 170.562ZM114.245 151.207C114.839 152.001 115.525 152.764 116.357 153.712L117.899 155.469C124.096 161.705 136.9 164.542 147.522 161.852C151.916 160.742 159.64 157.651 162.029 149.48C162.507 148 163.409 144.339 162.476 139.043C162.404 138.63 162.402 138.208 162.469 137.794C161.197 132.768 157.296 127.026 142.99 121.221C141.756 120.651 140.685 120.188 139.629 119.734C134.742 117.629 129.677 115.448 127.635 110.769C126.702 107.547 126.386 105.373 127.134 102.906C127.464 101.567 128.067 100.31 128.905 99.2143C129.743 98.1187 130.799 97.208 132.005 96.5392C135.15 94.7046 139.297 94.296 143.121 95.4446C145.965 96.3233 148.447 98.0423 150.382 100.424C153.481 98.4046 154.822 97.5335 156.757 96.3233C156.273 95.6618 155.737 95.0406 155.153 94.4656C150.829 89.6402 145.487 87.7131 137.008 87.9367L132.198 88.561C128.259 89.5477 124.32 91.8294 122.077 94.589C118.755 98.3506 117.313 103.577 118.007 109.042C118.701 114.484 121.483 119.325 125.438 122C129.446 124.983 134.117 126.956 138.634 128.852C145.58 131.774 152.147 134.541 153.727 140.492L153.774 140.7C154.868 146.05 152.98 149.465 151.207 151.384C147.877 154.999 141.949 156.579 135.004 155.716C128.544 154.298 124.659 151.276 121.399 147.106L114.245 151.207Z" fill="white"/>
</svg>
