<svg width="258" height="205" viewBox="0 0 258 205" fill="none" xmlns="http://www.w3.org/2000/svg">
<path d="M64.4905 188.016C63.2189 188.015 61.9887 187.564 61.0189 186.741C60.049 185.919 59.4022 184.779 59.1937 183.525L52.3175 142.268L40.1016 184.148C38.7694 188.746 31.1197 188.746 29.7874 184.148L17.5715 142.279L10.6953 183.536C10.5988 184.248 10.3601 184.934 9.99358 185.553C9.62701 186.171 9.13998 186.71 8.56134 187.137C7.9827 187.564 7.32424 187.87 6.62499 188.038C5.92573 188.206 5.19993 188.231 4.49059 188.113C3.78125 187.995 3.10281 187.736 2.4955 187.351C1.88819 186.966 1.36436 186.463 0.955075 185.872C0.545785 185.281 0.259363 184.613 0.112786 183.909C-0.0337901 183.205 -0.0375372 182.479 0.101767 181.773L10.8458 117.31C11.0454 116.11 11.6461 115.014 12.5498 114.2C13.4534 113.386 14.6064 112.903 15.8202 112.829C17.0397 112.734 18.2544 113.067 19.2547 113.771C20.2549 114.475 20.9782 115.506 21.2997 116.686L34.9445 163.466L48.5894 116.686C48.909 115.505 49.6318 114.473 50.6325 113.768C51.6333 113.064 52.8489 112.732 54.0688 112.829C55.2827 112.903 56.4357 113.386 57.3393 114.2C58.2429 115.014 58.8436 116.11 59.0433 117.31L69.7873 181.773C69.9134 182.542 69.871 183.329 69.6629 184.079C69.4549 184.829 69.0861 185.526 68.5823 186.119C68.0785 186.713 67.4516 187.19 66.745 187.518C66.0385 187.845 65.2692 188.015 64.4905 188.016ZM88.095 188.016C86.9751 188.016 85.8832 187.666 84.972 187.015C84.0609 186.363 83.376 185.444 83.0131 184.384L70.1525 146.78C69.6909 145.431 69.7842 143.954 70.4118 142.673C71.0395 141.393 72.1501 140.414 73.4993 139.953C74.8485 139.491 76.3259 139.584 77.6063 140.212C78.8868 140.839 79.8655 141.95 80.3271 143.299L93.1876 180.903C93.4649 181.713 93.5448 182.577 93.4205 183.424C93.2962 184.271 92.9715 185.075 92.4732 185.771C91.975 186.467 91.3178 187.034 90.5562 187.424C89.7946 187.815 88.9508 188.017 88.095 188.016Z" fill="white"/>
<path d="M64.4906 204.132C63.0659 204.132 61.6995 203.566 60.6921 202.558C59.6846 201.551 59.1187 200.184 59.1187 198.76C59.1187 197.335 59.6846 195.969 60.6921 194.961C61.6995 193.954 63.0659 193.388 64.4906 193.388C91.0068 193.388 96.7011 144.932 96.7548 144.438C96.9378 143.034 97.6581 141.756 98.7642 140.873C99.8703 139.989 101.276 139.569 102.686 139.7C105.629 140.022 107.757 142.687 107.434 145.641C107.166 148.016 100.515 204.132 64.4906 204.132ZM134.37 188.016H118.211C116.786 188.016 115.419 187.45 114.412 186.442C113.405 185.435 112.839 184.068 112.839 182.644C112.839 181.219 113.405 179.853 114.412 178.845C115.419 177.838 116.786 177.272 118.211 177.272H134.37C140.268 177.272 145.071 172.469 145.071 166.571C145.071 160.672 140.268 155.87 134.37 155.87C131.548 155.875 128.752 155.325 126.143 154.251C123.534 153.176 121.162 151.598 119.163 149.606C117.163 147.615 115.576 145.249 114.491 142.645C113.406 140.04 112.844 137.247 112.839 134.425C112.839 122.434 122.465 112.808 134.284 112.808H150.443C151.867 112.808 153.234 113.374 154.241 114.381C155.249 115.389 155.815 116.755 155.815 118.18C155.815 119.605 155.249 120.971 154.241 121.978C153.234 122.986 151.867 123.552 150.443 123.552H134.284C131.446 123.555 128.726 124.683 126.72 126.689C124.714 128.695 123.585 131.416 123.583 134.253C123.583 140.312 128.385 145.126 134.284 145.126C137.105 145.12 139.901 145.67 142.51 146.745C145.119 147.82 147.491 149.398 149.49 151.389C151.49 153.38 153.077 155.746 154.162 158.351C155.247 160.956 155.809 163.749 155.815 166.571C155.815 178.389 146.188 188.016 134.37 188.016ZM188.046 188.016C172.983 188.016 161.187 171.502 161.187 150.412C161.187 129.321 172.983 112.808 188.046 112.808C203.11 112.808 214.906 129.321 214.906 150.412C214.906 171.502 203.11 188.016 188.046 188.016ZM188.046 123.552C179.312 123.552 171.93 135.854 171.93 150.412C171.93 164.97 179.312 177.272 188.046 177.272C196.781 177.272 204.162 164.97 204.162 150.412C204.162 135.854 196.781 123.552 188.046 123.552Z" fill="white"/>
<path d="M209.533 188.016C208.108 188.016 206.741 187.452 205.73 186.447L190.785 171.503C189.806 170.489 189.265 169.132 189.277 167.724C189.289 166.315 189.854 164.968 190.85 163.972C191.846 162.976 193.194 162.411 194.602 162.399C196.011 162.387 197.368 162.928 198.381 163.907L213.326 178.851C214.075 179.603 214.584 180.559 214.791 181.599C214.997 182.64 214.891 183.718 214.485 184.698C214.08 185.678 213.393 186.517 212.512 187.107C211.63 187.697 210.594 188.014 209.533 188.016ZM252.509 188.016H225.649C224.224 188.016 222.858 187.45 221.851 186.443C220.843 185.435 220.277 184.069 220.277 182.644V118.18C220.277 116.755 220.843 115.389 221.851 114.382C222.858 113.374 224.224 112.808 225.649 112.808C227.074 112.808 228.44 113.374 229.448 114.382C230.455 115.389 231.021 116.755 231.021 118.18V177.272H252.509C253.934 177.272 255.3 177.838 256.308 178.845C257.315 179.853 257.881 181.219 257.881 182.644C257.881 184.069 257.315 185.435 256.308 186.443C255.3 187.45 253.934 188.016 252.509 188.016ZM174.046 31.3473C173.219 31.3446 172.402 31.1671 171.648 30.8264C170.894 30.4857 170.221 29.9895 169.673 29.3704C169.464 29.1057 169.271 28.8295 169.093 28.5431C165.966 29.0696 162.593 26.5555 162.593 23.2571C162.593 20.7537 164.323 18.4438 166.761 17.8851C167.782 17.6594 168.953 17.4338 170.554 17.4016C171.305 17.3359 172.061 17.4345 172.77 17.6906C173.478 17.9466 174.123 18.3539 174.658 18.8843C175.346 19.314 176.581 20.1306 177.462 21.6025L178.107 22.7628C180.063 24.9976 179.665 28.1671 177.43 30.1117C176.489 30.9196 175.286 31.3586 174.046 31.3473Z" fill="white"/>
<path d="M252.639 112.324C251.802 112.328 250.975 112.142 250.222 111.779C249.468 111.416 248.806 110.886 248.288 110.229C247.72 109.481 247.267 108.651 246.945 107.769L245.462 106.436C243.535 103.934 241.247 101.732 238.672 99.9041C238.296 99.657 237.651 99.2917 236.953 98.8941C233.891 97.1643 230.119 95.0263 228.615 91.4808C228.301 90.8204 228.122 90.1037 228.088 89.373C228.055 88.6423 228.169 87.9124 228.422 87.2262C228.765 86.2816 229.367 85.4528 230.159 84.8351C230.952 84.2174 231.902 83.8359 232.902 83.7344C234.02 83.6377 235.32 83.2294 236.426 82.9286C237.21 82.7137 237.909 82.5633 238.553 82.4451C236.041 80.4722 233.419 78.6428 230.7 76.9656C229.518 76.2243 228.207 75.6979 226.918 75.1499C225.786 74.6856 224.671 74.1803 223.576 73.635C222.137 73.1838 220.149 72.5176 218.795 70.5622C217.678 69.273 216.808 67.4035 216.045 65.7597L215.443 64.4919C213.391 60.624 211.307 56.2083 209.459 51.9751C209.008 51.0082 208.567 49.923 208.127 48.8379C207.546 47.3875 207.009 45.9585 206.16 44.6155C199.51 33.85 192.247 26.9631 180.257 20.0655C178.602 19.1415 176.249 18.6043 173.531 17.9919L168.127 17.5944C167.502 17.5672 166.887 17.429 166.311 17.1861C165.019 16.6002 163.835 15.8012 162.808 14.8224C156.964 11.062 153.236 10.4389 152.43 10.8364C152.107 11.6422 153.01 13.2001 155.041 15.682C155.524 16.2836 155.954 16.8208 156.298 17.2828C158.049 19.5176 159.456 21.3226 160.434 23.3747C160.896 24.492 161.143 25.3515 161.369 26.2326C161.476 26.6301 161.573 27.0491 161.734 27.4681L162.551 29.7458C163.356 32.0236 164.173 34.3765 165.237 36.4179C165.87 37.6104 166.569 38.889 167.396 39.9956C168.87 41.173 169.866 42.8451 170.2 44.7015C170.325 45.4004 170.31 46.117 170.157 46.8102C170.004 47.5035 169.716 48.1597 169.309 48.7412C169.193 49.1969 169.089 49.6555 168.997 50.1164C168.829 50.9587 168.614 51.7909 168.352 52.609C166.332 58.8728 166.999 67.1457 169.899 71.8085L170.447 72.6036L170.48 72.3672C170.641 71.1424 170.813 69.8639 171.135 68.6283C171.231 67.2117 171.743 65.855 172.607 64.7283C173.206 63.9558 174.004 63.3614 174.916 63.0092C175.828 62.6569 176.819 62.5602 177.781 62.7293C178.744 62.8984 179.643 63.327 180.38 63.9689C181.117 64.6108 181.665 65.4417 181.965 66.3721L182.373 67.1671C183.158 68.7035 183.942 70.1969 184.662 71.7656C185.876 73.5598 189.013 76.7078 192.311 79.1574C193.053 79.7054 193.783 80.3822 194.503 81.1128C195.048 81.3192 195.553 81.6171 195.997 81.9938C196.534 82.3914 197.125 82.8211 197.705 83.3906C198.326 83.883 198.828 84.5081 199.176 85.2202C199.524 85.9323 199.708 86.7131 199.714 87.5055C199.713 88.3856 199.505 89.2531 199.105 90.0372C198.706 90.8214 198.126 91.5001 197.415 92.018C196.714 92.526 195.901 92.8584 195.045 92.9874C194.188 93.1164 193.314 93.0382 192.494 92.7593C190.023 91.8461 188.336 90.1485 187.111 88.913C186.725 88.5262 186.348 88.1179 185.94 87.8063C183.286 85.8232 180.818 83.6006 178.57 81.1666C177.556 82.3401 176.268 83.2444 174.82 83.7988C171.93 84.9699 166.182 85.765 160.821 77.5995C156.201 70.1754 155.116 58.5719 158.113 49.2677C158.274 48.7842 158.36 48.3222 158.457 47.8602C158.554 47.4197 158.65 46.947 158.779 46.4527C157.616 44.8541 156.581 43.1549 155.685 41.3923C154.406 38.7809 153.308 36.085 152.397 33.3236L151.667 31.2715C151.373 30.4974 151.132 29.7041 150.947 28.8971C150.84 28.4995 150.754 28.102 150.592 27.7045C149.919 26.5947 149.162 25.5386 148.326 24.5457C148.103 24.2536 147.877 23.9635 147.649 23.6755L146.682 22.4614C144.372 19.6035 139.548 13.6943 142.416 6.90412C142.994 5.41525 143.898 4.07482 145.062 2.98151C146.226 1.88819 147.62 1.06983 149.142 0.586662C155.298 -1.39023 162.712 2.00487 167.858 5.18509C168.513 5.59336 169.169 6.13056 169.824 6.69999L169.771 6.92561L173.993 7.15124C174.304 7.16198 175.604 7.41984 175.916 7.49504C179.15 8.22564 182.491 8.9992 185.553 10.7075C199.306 18.6258 207.622 26.5334 215.293 38.9427C216.464 40.8121 217.291 42.789 218.097 44.8196C218.462 45.7221 218.817 46.6354 219.247 47.5379C221.041 51.6421 222.996 55.8107 224.995 59.5711L225.79 61.2365C226.166 62.053 226.52 62.8373 226.886 63.4282C227.384 63.5952 227.872 63.7926 228.347 64.0192C229.26 64.4811 230.173 64.8572 231.086 65.244C232.913 66.0175 234.739 66.8126 236.34 67.8118C240.412 70.3044 244.635 73.3987 248.825 76.9549C249.867 77.8789 250.705 78.9211 251.521 79.9632C251.898 80.4467 252.263 80.9517 252.682 81.3707C253.195 81.8687 253.604 82.4649 253.882 83.1238C254.161 83.7827 254.304 84.4909 254.304 85.2063C254.304 87.5592 252.768 90.2775 250.522 90.9758C249.286 91.3686 248.039 91.7269 246.783 92.0502L246.278 92.1684C249.115 94.3602 251.521 96.7668 253.498 99.3669L255.131 100.817C255.389 101.064 255.626 101.355 255.819 101.645C256.367 102.45 256.679 103.224 256.893 103.74C257.322 104.294 257.636 104.928 257.818 105.605C258 106.281 258.046 106.987 257.953 107.682C257.86 108.376 257.63 109.045 257.277 109.651C256.923 110.256 256.454 110.785 255.894 111.207C254.968 111.939 253.82 112.334 252.639 112.324Z" fill="white"/>
</svg>
