<svg width="188" height="215" viewBox="0 0 188 215" fill="none" xmlns="http://www.w3.org/2000/svg">
<path d="M47.6779 186.316C43.9431 186.316 40.2083 185.369 36.7863 183.457L32.1134 180.839C28.8879 179.034 27.7353 174.96 29.5401 171.717C31.336 168.5 35.4193 167.33 38.6626 169.144L43.3266 171.752C46.15 173.316 49.3844 173.298 52.19 171.654C55.0045 169.992 56.6306 167.16 56.6306 163.872V67.8847C56.6306 64.1857 59.6327 61.1836 63.3318 61.1836C67.0308 61.1836 70.0329 64.1857 70.0329 67.8847V163.872C70.0329 171.913 65.8961 179.142 58.9716 183.207C55.4512 185.271 51.5645 186.316 47.6779 186.316Z" fill="white"/>
<path d="M93.834 214.425C91.0374 214.425 88.2407 213.702 85.7569 212.245L64.2864 199.674C61.0966 197.798 60.0155 193.697 61.8829 190.507C63.7503 187.308 67.8514 186.245 71.0501 188.103L92.5205 200.675C93.3247 201.157 94.2896 201.166 95.1295 200.675L172.854 155.161C173.703 154.669 174.23 153.74 174.23 152.703V61.7019C174.23 60.6833 173.694 59.7362 172.836 59.2359L95.1474 13.7575C94.3254 13.2839 93.3426 13.275 92.5563 13.7485L14.7515 59.2538C13.9206 59.7452 13.4024 60.6744 13.4024 61.684V152.703C13.4024 153.704 13.9385 154.669 14.7605 155.143L38.7774 169.206C41.9671 171.082 43.0482 175.184 41.1808 178.373C39.3045 181.554 35.2034 182.626 32.0137 180.777L7.99678 166.713C3.06473 163.827 7.77241e-05 158.449 7.77241e-05 152.703V61.7019C-0.017792 55.9657 3.04686 50.5869 7.97891 47.692L85.7479 2.19575C90.7336 -0.725952 96.9165 -0.734887 101.92 2.18681L179.626 47.6742C184.576 50.5869 187.632 55.9657 187.632 61.7019V152.721C187.614 158.466 184.559 163.809 179.653 166.713L101.902 212.245C99.4183 213.702 96.6216 214.425 93.834 214.425Z" fill="white"/>
<path d="M115.599 153.249C95.5129 153.249 74.0514 146.324 74.0514 126.882C74.0514 123.183 77.0535 120.181 80.7526 120.181C84.4516 120.181 87.4537 123.183 87.4537 126.882C87.4537 137.121 105.145 139.846 115.599 139.846C134.272 139.846 143.743 137.836 143.743 126.882C143.743 121.378 137.024 119.225 120.522 115.293L113.981 113.712C111.98 113.22 109.862 112.756 107.691 112.273C93.4937 109.137 74.0425 104.857 74.0425 87.5416C74.0425 68.0993 95.504 61.1748 115.59 61.1748C135.675 61.1748 157.137 68.0993 157.137 87.5416C157.137 91.2406 154.135 94.2427 150.436 94.2427C146.736 94.2427 143.734 91.2406 143.734 87.5416C143.734 77.3022 126.043 74.5771 115.59 74.5771C105.136 74.5771 87.4448 77.3112 87.4448 87.5416C87.4448 93.5994 97.4697 96.2888 110.577 99.1837C112.873 99.693 115.107 100.184 117.207 100.712L123.622 102.257C140.866 106.358 157.146 110.236 157.146 126.882C157.146 153.249 129.081 153.249 115.599 153.249Z" fill="white"/>
</svg>
