<svg width="238" height="212" viewBox="0 0 238 212" fill="none" xmlns="http://www.w3.org/2000/svg">
<path d="M132.788 107.377C132.788 109.184 132.388 110.974 131.612 112.645C130.836 114.315 129.699 115.832 128.265 117.111C126.832 118.389 125.129 119.403 123.256 120.095C121.383 120.787 119.375 121.143 117.347 121.143C115.32 121.143 113.312 120.787 111.438 120.095C109.565 119.403 107.863 118.389 106.429 117.111C104.995 115.832 103.858 114.315 103.082 112.645C102.306 110.974 101.907 109.184 101.907 107.377C101.907 103.726 103.534 100.224 106.429 97.6424C109.325 95.0607 113.252 93.6104 117.347 93.6104C121.442 93.6104 125.37 95.0607 128.265 97.6424C131.161 100.224 132.788 103.726 132.788 107.377Z" fill="white"/>
<path d="M118.892 185.649C135.949 202.207 152.761 212 166.312 212C170.754 212 174.959 211.066 178.456 208.971C190.599 201.971 195.041 184.479 190.836 159.524C190.136 155.089 189.201 150.664 188.029 145.994C192.698 144.598 196.903 143.192 201.108 141.796C224.705 132.701 237.784 120.105 237.784 106.349C237.784 92.3573 224.705 79.7618 201.108 70.9024C196.903 69.2702 192.698 67.8737 188.029 66.704C189.201 62.043 190.136 57.6088 190.836 53.1746C194.805 27.757 190.372 10.0292 178.22 3.0287C174.714 0.934002 170.509 0 166.076 0C152.761 0 135.704 9.79341 118.656 26.3515C101.835 9.79341 85.0136 0 71.4714 0C67.03 0 62.8247 0.934002 59.3279 3.0287C47.1844 10.0292 42.743 27.5213 46.9482 52.4763C47.6476 56.9106 48.5831 61.3357 49.7548 66.0057C45.0863 67.4022 40.881 68.8077 36.6757 70.2042C13.079 79.2994 0 91.8948 0 105.651C0 119.643 13.079 132.238 36.6757 141.098C40.881 142.73 45.0863 144.126 49.7548 145.296C48.6158 149.761 47.6793 154.276 46.9482 158.825C42.9791 183.781 47.4114 201.508 59.3279 208.273C62.8338 210.377 67.0391 211.302 71.4714 211.302C85.0227 211.764 101.844 201.971 118.892 185.649ZM105.804 154.165C110.009 154.4 114.45 154.4 118.883 154.4C123.315 154.4 127.757 154.4 131.962 154.165C127.843 159.569 123.479 164.783 118.883 169.789C114.284 164.785 109.92 159.571 105.804 154.165ZM76.8392 130.143C79.1735 134.106 81.2806 137.842 83.851 141.569C76.9543 140.686 70.0971 139.518 63.297 138.069C65.4042 131.776 67.7384 125.238 70.5359 118.709C72.4069 122.436 74.505 126.407 76.8392 130.134V130.143ZM63.2879 73.9311C69.8274 72.5347 76.6031 71.3649 83.842 70.4309C81.5077 74.1669 79.1735 77.8938 76.8302 81.8565C74.4868 85.8192 72.3887 89.5552 70.5268 93.5179C67.6757 87.1557 65.2572 80.618 63.2879 73.9311ZM76.1399 105.887C79.1735 99.5935 82.4432 93.2912 86.1853 86.9981C89.6912 80.9316 93.6603 74.8742 97.6294 68.8077C111.789 67.868 125.995 67.868 140.154 68.8077C144.36 74.8742 148.093 80.9316 151.599 86.9981C155.341 93.2912 158.61 99.5935 161.644 105.887C158.573 112.326 155.222 118.629 151.599 124.775C148.093 130.842 144.124 136.899 140.154 142.966C125.995 143.905 111.789 143.905 97.6294 142.966C93.5655 137.062 89.7476 130.993 86.1853 124.775C82.5639 118.628 79.2123 112.325 76.1399 105.887ZM167.484 93.2912L161.181 81.6299C158.846 77.6671 156.739 73.9311 154.169 70.2042C161.408 71.1382 168.183 72.308 174.723 73.7044C172.625 80.2334 170.282 86.7532 167.484 93.2912ZM167.484 118.482C170.291 125.011 172.625 131.54 174.723 137.842C168.183 139.239 161.408 140.408 154.169 141.342C156.503 137.606 158.837 133.879 161.181 129.917C163.288 126.417 165.386 122.454 167.484 118.491V118.482ZM172.852 199.414C170.981 200.583 168.647 201.046 166.076 201.046C154.632 201.046 140.381 191.715 126.367 177.723C133.508 169.995 140.14 161.814 146.222 153.231C156.764 152.371 167.229 150.734 177.529 148.334C178.701 152.532 179.401 156.731 180.1 160.929C183.37 180.752 180.79 194.979 172.852 199.414ZM185.005 76.4974C211.172 83.9603 226.821 95.3859 226.821 105.887C226.821 114.982 216.076 124.077 197.157 131.313C193.415 132.71 189.219 134.115 185.014 135.276C181.835 125.244 178.012 115.428 173.569 105.887C178.238 95.8575 182.207 86.0641 185.005 76.4974ZM166.312 10.7274C168.883 10.7274 170.981 11.1899 173.088 12.3596C180.799 16.7939 183.597 30.7857 180.327 50.8441C179.628 54.8068 178.692 59.0053 177.757 63.4395C167.414 61.2584 156.964 59.6239 146.449 58.5428C140.438 49.906 133.802 41.72 126.594 34.0502C140.609 20.285 154.868 10.7274 166.312 10.7274ZM131.971 57.6088C127.766 57.373 123.324 57.373 118.892 57.373C114.46 57.373 110.018 57.373 105.813 57.6088C110.018 52.0139 114.46 46.8814 118.892 41.9847C123.333 46.8814 127.766 52.2496 131.971 57.6088ZM64.9228 12.3596C66.7938 11.1899 69.1281 10.7274 71.6984 10.7274C83.1426 10.7274 97.3933 20.0583 111.408 34.0502C104.265 41.7763 97.6328 49.9577 91.5531 58.5428C81.0105 59.4022 70.546 61.0389 60.2452 63.4395C59.0736 59.241 58.3742 55.0426 57.6748 50.8441C54.4051 31.0215 56.9846 17.0296 64.9228 12.3596ZM52.7793 135.276C26.6122 127.813 10.9628 116.387 10.9628 105.887C10.9628 96.7915 21.7075 87.6963 40.6267 80.4691C44.3688 79.0727 48.5649 77.6671 52.7702 76.5064C55.9487 86.5381 59.7713 96.3549 64.2143 105.896C59.5459 115.925 55.5677 125.954 52.7702 135.285L52.7793 135.276ZM57.6839 160.929C58.3833 156.967 59.3188 152.768 60.2543 148.334C70.0636 150.438 80.5813 152.07 91.5622 153.231C97.5732 161.867 104.209 170.053 111.417 177.723C97.4024 191.479 83.1517 201.046 71.7075 201.046C69.1371 201.046 67.039 200.583 64.9319 199.414C56.9846 194.979 54.4232 180.752 57.693 160.929H57.6839Z" fill="white"/>
</svg>
