<svg width="117" height="129" fill="none" xmlns="http://www.w3.org/2000/svg"><path d="M56.096 129V20.563L28.849 0 0 18.605V59.73l28.048 19.584 18.432-12.73-11.22 12.73v33.292L46.48 129h9.616z" fill="#fff"/><path d="M26.731 13.709l16.21 11.435v22.87L26.73 59.45l-16.21-11.435v-22.87l16.21-11.435z" fill="#272727"/><path d="M60.904 129V20.563L88.151 0 117 18.605V59.73L88.952 79.314l-18.431-12.73 11.219 12.73v33.292L70.52 129h-9.616z" fill="#fff"/><path d="M90.269 13.709l-16.21 11.435v22.87L90.27 59.45l16.21-11.435v-22.87l-16.21-11.435z" fill="#272727"/></svg>